<?xml version="1.0" encoding="UTF-8" standalone="no"?>
<svg
   xmlns:dc="http://purl.org/dc/elements/1.1/"
   xmlns:cc="http://creativecommons.org/ns#"
   xmlns:rdf="http://www.w3.org/1999/02/22-rdf-syntax-ns#"
   xmlns:svg="http://www.w3.org/2000/svg"
   xmlns="http://www.w3.org/2000/svg"
   viewBox="0 0 575.67999 183.67999"
   height="183.67999"
   width="575.67999"
   xml:space="preserve"
   id="svg3833"
   version="1.1"><metadata
     id="metadata3839"><rdf:RDF><cc:Work
         rdf:about=""><dc:format>image/svg+xml</dc:format><dc:type
           rdf:resource="http://purl.org/dc/dcmitype/StillImage" /><dc:title></dc:title></cc:Work></rdf:RDF></metadata><defs
     id="defs3837" /><g
     transform="matrix(1.3333333,0,0,-1.3333333,0,183.68)"
     id="g3841"><g
       id="g5269"><path
         style="fill:#000000;stroke-width:0.24000001"
         d="m 217.8372,0.43889763 -0.39719,0.43889763 V 1.4817001 2.085605 l 0.43889,0.3971976 0.4389,0.3971976 h 0.36874 0.36873 l 0.64066,-0.5039376 0.64065,-0.5039377 0.57572,0.1444944 0.57571,0.1444969 0.19123,0.5394408 0.19122,0.5394432 -0.0538,3.1200003 -0.0538,3.1200002 -0.14952,1.4190003 -0.14952,1.419 -0.59045,0.590455 -0.59046,0.590453 0.19855,0.188758 0.19855,0.188755 1.26246,0.369585 1.26246,0.369586 0.36516,-0.557297 0.36515,-0.557297 0.23099,-1.410499 0.231,-1.410499 0.001,-1.6003707 10e-4,-1.600373 0.14567,-0.3796272 0.14568,-0.3796296 h 0.20199 0.202 l 1.21233,1.9699657 1.21233,1.9699678 v 0.508198 0.508198 l -0.6,0.563671 -0.6,0.563671 v 0.520968 0.520966 l 0.43889,0.397197 0.4389,0.397198 h 0.50368 0.50369 l 0.50677,-0.644254 0.50676,-0.644251 -0.15891,-0.735749 -0.15892,-0.735746 -0.60474,-1.2 L 227.69148,9.4800007 226.24719,7.3200005 224.80291,5.1600004 223.22818,3.260897 221.65346,1.3617937 220.5798,0.68089685 219.50613,0 h -0.63581 -0.63582 l -0.3972,0.43889763 z m 95.96281,-0.0929496 -0.96,0.35602082 -0.42,0.51560405 -0.42,0.515604 v 0.6759913 0.6759936 l 0.639,0.5026345 0.639,0.5026344 0.561,0.1408032 0.561,0.1408032 v 0.3198168 0.3198193 l -0.24,0.1483272 -0.24,0.1483272 v 0.8025576 0.8025577 l 0.88759,0.7120609 0.88762,0.7120584 -0.64762,0.7696345 -0.64759,0.769632 v 1.0260933 1.026094 l 0.54,0.794616 0.54,0.794616 0.94737,0.488988 0.94738,0.488988 1.34033,0.09695 1.34035,0.09695 0.9216,-0.385066 0.92158,-0.385063 h 1.03653 1.03654 l 0.15482,-0.250512 0.15483,-0.250514 -0.29007,-0.349486 -0.29004,-0.349488 h -0.42089 -0.42088 l -0.11276,-1.359543 -0.11275,-1.359542 -0.85769,-0.7860145 -0.85768,-0.7860145 -1.0368,-0.27918 -1.0368,-0.2791824 -0.98914,0.135576 -0.98914,0.1355784 -0.43236,-0.3161328 -0.43233,-0.3161329 0.13829,-0.360324 0.13826,-0.3603216 1.61398,-0.40542 1.614,-0.4054201 0.67216,-0.347592 0.67217,-0.3475944 0.37457,-0.5347705 0.37457,-0.5347728 V 3.4146794 2.6161634 l -0.35419,-0.6849121 -0.35417,-0.6849096 -0.87034,-0.53789765 -0.87033,-0.53789524 -2.19548,-0.090312 -2.19549,-0.09030961 z m 4.69027,0.61955284 0.45874,0.24550083 0.26256,0.4905936 0.26253,0.4905937 -0.37634,0.5744016 -0.37637,0.5744016 -1.24426,0.3695041 -1.24425,0.369504 h -0.60099 -0.60096 L 314.47549,3.5581659 313.92001,3.036329 V 2.524037 2.0117425 l 0.3,-0.3760344 0.3,-0.376032 0.48,-0.26254083 0.48,-0.26253842 1.27577,-0.007296 1.27579,-0.007296 0.45871,0.24550082 z m 0.52937,8.36654463 0.58233,0.6920425 0.29758,1.062874 0.29758,1.062873 -0.0786,0.825084 -0.0786,0.825082 h -0.84 -0.84 l -0.5707,-1.150884 -0.57072,-1.150882 -0.12029,-1.067179 -0.12028,-1.0671817 0.30038,-0.3619368 0.30038,-0.3619369 h 0.42929 0.42927 z m -220.326418,-4.674334 -1.026771,0.3356473 -0.835444,0.637224 -0.835445,0.6372241 -0.504408,0.9887232 -0.504411,0.9887233 -0.122832,1.3546249 -0.122834,1.3546277 0.405751,1.422748 0.405749,1.422747 0.805685,1.229165 0.805685,1.229162 1.05479,0.864322 1.05479,0.864322 1.423233,0.666516 1.42323,0.666513 2.04,-0.01894 2.04,-0.01894 0.96,-0.09033 0.96,-0.09033 0.42,0.194935 0.42,0.194937 V 19.01511 18.538873 l -0.38604,-1.709438 -0.38604,-1.709441 h -0.20471 -0.20471 l -0.25006,0.928668 -0.25006,0.92867 -0.49206,0.625546 -0.49206,0.625546 -0.90036,0.242443 -0.90037,0.242443 -0.80236,-0.230114 -0.80237,-0.230115 -0.81608,-0.546542 -0.81608,-0.546545 -0.9461,-1.404017 -0.946086,-1.404014 -0.494508,-1.595986 -0.494508,-1.595983 -0.01651,-1.6050605 -0.01654,-1.6050625 0.510929,-0.8267017 0.510931,-0.8267016 0.720922,-0.2986129 0.72092,-0.2986152 1.06904,0.021456 1.06903,0.021456 0.90792,0.4874521 0.90792,0.4874544 0.78,0.6322224 0.78,0.6322249 V 7.7114382 7.4413709 l -0.88362,-0.978072 -0.88363,-0.9780697 -0.92634,-0.4725816 -0.92633,-0.4725793 -1.49004,-0.109008 -1.490037,-0.109008 -1.026771,0.3356472 z M 114.36,4.5135411 l -0.48,0.1664592 -0.37448,0.2400001 -0.37449,0.24 -0.40551,0.5934024 -0.40552,0.5934001 0.002,1.3266001 0.002,1.3265977 0.56609,1.2156963 0.56609,1.215693 0.78448,0.89348 0.78449,0.893479 1.02249,0.59922 1.0225,0.599222 1.1872,0.140607 1.1872,0.140606 0.88796,-0.421363 0.88796,-0.421366 0.34943,-0.67572 0.34942,-0.675717 V 11.210252 9.9166663 l -0.73124,-1.4633377 -0.73124,-1.4633401 -0.87656,-0.7696368 -0.87657,-0.7696369 -0.98239,-0.434556 -0.98239,-0.4345585 -0.9498,-0.1172592 -0.94981,-0.1172592 -0.48,0.1664592 z m 2.45108,1.0664593 0.49475,0.54 0.48005,0.9600001 0.48004,0.9600001 0.50704,1.6452817 0.50704,1.6452797 v 1.025332 1.025333 l -0.35688,0.296187 -0.35688,0.296186 -0.56733,-0.142389 -0.56733,-0.14239 L 116.69924,12.30441 115.9669,10.920001 115.46345,9.2747191 114.96,7.6294398 V 6.6227189 5.6160004 l 0.288,-0.288 0.288,-0.288 h 0.39017 0.39016 z m 52.74386,-0.676752 -0.59494,0.5949336 -0.002,0.3109104 -0.002,0.310908 1.00812,3.3190755 1.00812,3.3190751 -0.29395,0.470688 -0.29394,0.470686 0.12694,0.205394 0.12694,0.205392 1.59609,0.277947 1.59608,0.277949 0.22954,-0.229536 0.22953,-0.229534 -1.14686,-3.629136 -1.14687,-3.6291365 0.24132,-0.2413152 0.24131,-0.2413152 0.62897,0.4947456 0.62897,0.494748 1.06461,1.7321354 1.0646,1.7321379 0.52299,1.607611 0.52299,1.607609 1.08259,0.162348 1.0826,0.162346 0.23857,-0.238568 0.23857,-0.238567 -1.09661,-3.608129 -1.09661,-3.6081289 V 6.5032613 6.2400005 h 0.33061 0.33061 l 0.29878,0.36 0.29877,0.36 h 0.21906 0.21906 l -0.23419,-0.4375848 -0.23419,-0.4375825 -0.75296,-0.7361568 -0.75296,-0.7361569 -0.74059,-0.1481184 -0.74058,-0.148116 -0.59113,0.3873192 -0.59112,0.3873169 0.13911,1.1745409 0.1391,1.1745384 h -0.20021 -0.2002 l -0.63542,-0.8330712 -0.63541,-0.8330713 -0.77307,-0.5754168 -0.77307,-0.5754169 -0.66507,-0.157356 -0.66506,-0.157356 -0.59494,0.5949361 z m 31.19416,0.00586 -0.5891,0.5890896 v 0.2335272 0.2335272 l 1.08,3.4210875 1.08,3.4210871 v 0.06695 0.06695 l -0.49806,0.464018 -0.49807,0.464021 0.2156,0.13325 0.21561,0.133251 1.54246,0.250264 1.54246,0.250268 0.3,0.0019 0.3,0.0019 v -0.387156 -0.387156 l -1.08,-3.412889 -1.08,-3.4128871 V 6.6401813 6.2402261 h 0.35797 0.35797 l 0.29976,0.48 0.29977,0.48 h 0.18227 0.18226 V 6.9685781 6.7369277 l -0.77625,-0.8841001 -0.77625,-0.8841 -0.77604,-0.3242521 -0.77604,-0.3242496 h -0.25862 -0.25861 L 200.7491,4.909318 Z M 210.96,4.4865555 210.6,4.6152171 210.3,4.9934788 210,5.3717428 V 5.895298 6.4188509 l 0.96,3.002873 0.96,3.0028711 v 0.251529 0.25153 l -0.48,0.152347 -0.48,0.152347 v 0.322416 0.322419 l 1.08869,0.527023 1.08868,0.527023 1.29276,1.181503 1.29275,1.181504 0.1422,-0.230081 0.14219,-0.230081 -0.29867,-1.116696 -0.29867,-1.116696 0.41504,-0.232267 0.41504,-0.232265 v -0.360559 -0.36056 l -0.71177,-0.248121 -0.71176,-0.248122 -0.63602,-2.079394 -0.63601,-2.0793934 -0.32963,-1.08 -0.32962,-1.0800001 -0.003,-0.3 -0.003,-0.3000001 h 0.32281 0.3228 l 0.42927,0.4743409 0.42927,0.4743408 0.21227,-0.1311912 0.21228,-0.1311888 -0.52061,-0.7311169 -0.5206,-0.7311192 -0.98374,-0.4467625 -0.98375,-0.4467624 -0.24,0.01368 -0.24,0.01368 -0.36,0.1286616 z m 36.34085,0.1570968 -0.97917,0.3215905 -0.73812,0.5457144 -0.73812,0.5457144 -0.64601,1.1869681 -0.64603,1.1869681 0.0833,2.0846982 0.0833,2.084695 0.68361,1.392185 0.68362,1.392185 1.16928,1.169275 1.16925,1.169275 1.57436,0.775049 1.57435,0.775049 1.76769,0.113443 1.7677,0.113446 1.20506,-0.289097 1.20509,-0.289094 0.48543,0.25979 0.48542,0.259793 0.11964,-0.19357 0.11964,-0.193567 -0.23592,-1.067081 -0.2359,-1.067081 -0.23841,-0.9 -0.23842,-0.9 h -0.20405 -0.20402 l -0.15626,0.832935 -0.15627,0.832936 -0.59829,0.711044 -0.59832,0.711045 -0.77213,0.249413 -0.77215,0.249413 -0.92859,-0.214567 -0.92861,-0.214567 -0.87139,-0.696113 -0.87141,-0.696111 -0.76388,-1.125684 -0.76387,-1.125684 -0.51931,-1.377031 -0.51931,-1.377029 -0.11314,-1.8 -0.11311,-1.8000004 0.4363,-0.8229409 0.43632,-0.8229384 0.63432,-0.4647529 0.63434,-0.4647528 h 1.1671 1.16709 l 0.85603,0.3576696 0.85604,0.3576697 0.88252,0.7748856 0.88256,0.7748833 V 7.6138014 7.2578789 l -0.91032,-0.938016 -0.9103,-0.9380161 -0.88385,-0.4194072 -0.88382,-0.4194073 -1.50586,-0.110484 -1.50585,-0.110484 z m 14.61624,-0.038357 -0.52291,0.2528113 -0.28598,0.6903888 -0.28596,0.6903913 0.10166,1.3805569 0.10164,1.3805569 0.61968,1.3488025 0.61966,1.348803 0.91121,1.008578 0.91118,1.008576 0.90679,0.462622 0.90682,0.462619 h 0.53066 0.53067 l 0.45232,-0.409346 0.45233,-0.409347 0.46332,0.289347 0.46332,0.289346 h 0.96324 0.96327 v -0.275342 -0.275343 l -1.08,-3.662167 -1.08,-3.6621655 V 6.3824909 6.2400005 h 0.45432 0.45432 l 0.13814,0.36 0.13814,0.36 h 0.24754 0.24754 V 6.6470813 6.3341597 l -0.78425,-0.7601329 -0.78427,-0.7601329 -0.73539,-0.2563536 -0.73536,-0.2563536 -0.64037,0.2434656 -0.64036,0.243468 v 0.8459401 0.8459401 h -0.22366 -0.22366 l -0.49161,-0.6904105 -0.49162,-0.6904128 -0.82099,-0.3895873 -0.82102,-0.3895896 -0.20371,0.016248 -0.20373,0.016248 -0.52292,0.2528088 z m 3.6714,3.0080475 0.77122,1.0111488 0.50016,1.3367569 0.50014,1.3367595 v 1.04161 1.041609 l -0.34467,0.286042 -0.34466,0.286042 -0.48317,-0.258596 -0.48319,-0.258597 -0.85246,-1.738059 -0.85243,-1.7380585 -0.23734,-1.2802201 -0.23733,-1.2802201 0.25382,-0.4742592 0.2538,-0.4742592 0.39245,0.075576 0.39242,0.075576 z m 22.95869,-3.0536883 -0.53282,0.2195664 -0.16188,0.6450409 -0.16191,0.6450384 0.99473,3.0836571 0.99471,3.0836547 v 0.576017 0.576017 l -0.37522,0.143983 -0.37522,0.143981 0.13608,0.220154 0.13606,0.220155 1.70167,0.287023 1.70165,0.287023 0.23486,-0.234862 0.23487,-0.234861 -1.21738,-3.823544 -1.21737,-3.8235433 V 6.4070789 6.2400005 h 0.28452 0.28454 l 0.55452,0.5209464 0.55452,0.5209464 0.12276,-0.1227624 0.12276,-0.12276 -0.5418,-0.7961184 -0.54182,-0.7961161 -0.6,-0.4312368 -0.6,-0.4312369 -0.6,-0.1207872 -0.6,-0.1207872 z m 54.05283,-0.029916 -0.72,0.1899624 -0.72,0.3773449 -0.72,0.3773472 -0.51192,0.5628048 -0.51195,0.5628025 -0.44772,0.84 -0.44772,0.8400001 0.008,2.0400006 0.008,2.04 0.76508,1.581389 0.76507,1.581389 1.21257,1.134216 1.21256,1.134216 1.61361,0.764395 1.61359,0.764395 2.04,-0.01894 2.04,-0.01894 0.96,-0.09033 0.96,-0.09033 0.42,0.194935 0.42,0.194937 -0.0192,-0.685677 -0.0192,-0.685678 -0.4008,-1.435219 -0.4008,-1.435217 -0.23016,-0.0048 -0.23016,-0.0048 -0.16576,0.810528 -0.16577,0.810526 -0.46699,0.629474 -0.467,0.629472 -0.90295,0.302283 -0.90295,0.302282 -0.87413,-0.237065 -0.87413,-0.237067 -0.8693,-0.593004 -0.86928,-0.593002 -0.74647,-1.126946 -0.74645,-1.126947 -0.50506,-1.345267 -0.50503,-1.345267 -0.21761,-1.32 -0.21758,-1.3200007 0.15046,-0.8400001 0.15048,-0.84 0.33199,-0.6559369 0.33199,-0.6559392 0.74808,-0.3868513 0.74808,-0.3868512 1.1502,0.0089 1.15022,0.0089 0.9337,0.4763377 0.9337,0.4763376 0.32421,0.3906456 0.32419,0.3906432 0.43976,0.2353417 0.43972,0.2353416 V 7.6891278 7.4413757 l -0.88363,-0.978072 -0.88363,-0.9780697 -0.92633,-0.4725816 -0.92633,-0.4725793 -1.49004,-0.100152 -1.49004,-0.1001496 -0.72,0.18996 z m 30.23493,0.3735097 -0.59493,0.5949336 -0.002,0.3109104 -0.002,0.310908 1.00812,3.3190755 1.00812,3.3190753 -0.29395,0.470688 -0.29396,0.470686 0.12696,0.205394 0.12694,0.205392 1.59607,0.277947 1.5961,0.277949 0.22625,-0.226246 0.22624,-0.226246 -1.10114,-3.479702 -1.10114,-3.4797007 v -0.267156 -0.267156 h 0.45984 0.45981 l 0.70555,0.9000001 0.70553,0.9 0.67848,1.0800001 0.67848,1.0800005 0.51324,1.68 0.51324,1.68 1.12947,0.221448 1.12946,0.221448 0.25006,-0.250058 0.25005,-0.250059 -1.09661,-3.608129 -1.0966,-3.6081291 V 6.5032613 6.2400005 h 0.28111 0.28109 l 0.44037,0.3985296 0.44038,0.3985272 0.11162,-0.111624 0.11163,-0.1116264 -0.53312,-0.7674697 -0.53308,-0.7674672 -1.05812,-0.5192929 -1.05811,-0.5192904 -0.62189,0.354912 -0.62188,0.3549121 0.033,1.2449448 0.033,1.2449449 h -0.19286 -0.19284 l -0.75674,-0.9554544 -0.75675,-0.9554521 -0.64341,-0.4495488 -0.64344,-0.4495465 -0.66507,-0.1608432 -0.66506,-0.1608432 -0.59494,0.5949361 z m 29.24497,-0.3251617 -0.76011,0.225324 -0.61989,0.7367089 -0.6199,0.7367089 0.005,1.4815873 0.005,1.4815849 0.45658,1.0056745 0.4566,1.005675 1.02734,1.114552 1.02737,1.114556 0.92719,0.473023 0.92722,0.473023 1.14067,0.135096 1.14069,0.135099 0.75944,-0.392715 0.7594,-0.392714 0.1604,-0.639003 0.16036,-0.639004 -0.33688,-0.592923 -0.33692,-0.592922 -0.40135,-0.250726 -0.40137,-0.250723 -0.61863,0.28187 -0.61865,0.281871 v 0.57576 0.575757 l 0.36,0.298774 0.36,0.298774 v 0.338145 0.338146 l -0.33832,0.129833 -0.33836,0.129832 -0.68164,-0.354561 -0.68168,-0.354562 -0.52828,-0.565793 -0.52827,-0.565793 -0.49334,-1.115263 -0.49332,-1.115261 -0.15015,-1.0953911 -0.15014,-1.0953913 0.30468,-0.7355305 0.30466,-0.735528 0.4313,-0.2308296 0.4313,-0.2308273 h 0.66 0.66003 l 1.04829,0.5074729 1.0483,0.5074752 0.13418,-0.1341816 0.13419,-0.1341816 -0.68671,-0.6379729 -0.68672,-0.6379704 -0.84,-0.4265616 -0.84,-0.4265593 -0.96,-0.1323816 -0.96,-0.1323792 -0.7601,0.2253264 z M 0,71.158174 v 66.601836 h 14.882886 14.882887 l -0.06288,-9.06 -0.06289,-9.06 -1.8,-0.12 -1.8,-0.12 -0.0625,-10.62 -0.0625,-10.620003 -0.0575,-0.05417 -0.0575,-0.05417 L 14.28,97.925837 2.7600001,97.800007 v -1.68 -1.68 l 11.5199999,-0.12 11.520001,-0.12 0.12,-36.000003 0.12,-36.000002 1.8,-0.12 1.8,-0.12 V 13.320001 4.6800003 L 14.82,4.6181691 0,4.5563379 Z M 138.42,4.8192243 138,5.0638516 v 0.9009192 0.9009169 l 0.84,2.494313 0.84,2.4943133 v 0.312842 0.312845 h -0.31129 -0.31129 l -0.85225,-0.9 -0.85225,-0.9 -0.6627,-0.8970603 -0.6627,-0.8970601 -0.65763,-1.9829401 -0.65762,-1.9829401 -1.35613,-0.071976 L 132,4.7760459 l 0.003,0.1919785 0.003,0.191976 0.95661,3.2338514 0.95662,3.2338542 v 0.426146 0.426149 h -0.1951 -0.1951 l -0.61916,-0.66 -0.61917,-0.66 -0.91172,-1.4400003 -0.91172,-1.4400001 -0.51215,-1.6800001 -0.51215,-1.6800001 -1.36186,-0.071976 -1.3611,-0.071979 V 4.9312852 5.086522 l 1.08,3.5534786 1.08,3.5534784 v 0.424364 0.424363 l -0.39267,0.433893 -0.39267,0.433894 0.33267,0.114979 0.33267,0.114977 1.53169,0.266333 1.53169,0.266335 0.20933,-0.209326 0.20932,-0.209323 -0.37734,-1.270656 -0.37735,-1.270656 0.14901,-0.149009 0.14901,-0.149009 0.64073,0.832683 0.64073,0.83268 0.68378,0.652351 0.68378,0.652349 0.83241,0.156161 0.83241,0.156161 0.49614,-0.448512 0.49614,-0.44851 -0.15347,-1.307952 -0.15348,-1.307952 1.51917,1.587965 1.51917,1.587967 0.89816,0.168497 0.89817,0.168497 0.4704,-0.425708 0.4704,-0.425709 v -0.875645 -0.875647 l -0.84,-2.4943133 -0.84,-2.494313 V 6.7928453 6.4800005 h 0.2811 0.2811 l 0.4389,0.3971976 0.4389,0.3971976 -0.008,-0.3371976 -0.008,-0.3371976 -0.43522,-0.5211553 -0.43522,-0.5211528 -0.8168,-0.4979496 -0.81679,-0.4979473 -0.48,0.00641 -0.48,0.00641 -0.42,0.2446272 z m 20.76,0.1018825 -0.54,0.386112 0.004,0.5263896 0.004,0.5263921 0.83466,2.6400002 0.83466,2.6400003 0.001,0.42 0.001,0.42 h -0.27687 -0.27687 l -0.92512,-1.002087 -0.92512,-1.002088 -0.69796,-1.0979117 -0.69796,-1.0979137 -0.52343,-1.7400001 -0.52343,-1.7400002 h -1.29662 -1.29662 v 0.4049521 0.404952 l 0.97489,3.2281538 0.97489,3.2281558 -0.24397,0.24397 -0.24396,0.243967 -0.74,-0.792163 -0.73999,-0.792163 -0.8247,-1.4071371 -0.8247,-1.4071369 -0.50961,-1.6777753 -0.50961,-1.6777754 h -1.29662 -1.29662 l -7.2e-4,0.3000001 -7.2e-4,0.3 1.13017,3.8070267 1.13018,3.8070239 -0.4095,0.299434 -0.4095,0.299434 v 0.240612 0.240614 l 1.81942,0.293506 1.81942,0.293503 0.13924,-0.139231 0.13923,-0.139232 -0.31734,-1.32269 -0.31731,-1.322691 0.12475,-0.124749 0.12475,-0.12475 0.9117,1.112604 0.91169,1.112604 0.74221,0.452595 0.74221,0.452592 0.49413,9.6e-4 0.49413,9.6e-4 0.45845,-0.335225 0.45844,-0.335225 -0.0585,-1.399397 -0.0586,-1.399394 1.2314,1.381601 1.2314,1.381603 0.68266,0.353018 0.68267,0.353019 h 0.49192 0.49191 l 0.48,-0.48 0.48,-0.48 v -0.604438 -0.604435 l -0.87099,-2.6955651 -0.871,-2.6955626 -0.11468,-0.3 -0.11468,-0.3 h 0.30678 0.30678 l 0.44037,0.3985296 0.44037,0.3985272 0.16245,-0.162456 0.16246,-0.162456 -0.47876,-0.641244 -0.47876,-0.6412417 -0.58517,-0.4320576 -0.58517,-0.4320601 -0.72,-0.1352712 -0.72,-0.1352736 -0.54,0.3861097 z m 31.8,-0.1018825 -0.42,0.2446273 0.001,0.7680744 0.001,0.7680745 0.83466,2.6400002 0.83466,2.6400003 0.004,0.3 0.004,0.3 h -0.43003 -0.43002 l -0.98715,-1.02 -0.98714,-1.02 -0.75005,-1.1983755 -0.75005,-1.1983753 -0.48294,-1.6216249 -0.48294,-1.621625 H 185.62984 184.32 l 0.003,0.3000001 0.003,0.3 1.07722,3.5793819 1.07722,3.5793847 v 0.328149 0.32815 l -0.36,0.138144 -0.36,0.138146 v 0.299151 0.29915 l 1.66623,0.275172 1.66623,0.275172 h 0.28537 0.28537 l -0.15248,-0.9 -0.15248,-0.9 -0.13933,-0.84 -0.13932,-0.84 1.1602,1.248634 1.16021,1.248633 0.84,0.490469 0.84,0.490469 0.4866,9.6e-4 0.4866,9.6e-4 0.5334,-0.373608 0.5334,-0.373611 v -0.899234 -0.899235 l -0.84,-2.4943125 -0.84,-2.494313 V 6.6729701 6.2401253 h 0.16453 0.16453 l 0.55547,0.5218344 0.55547,0.5218368 V 6.9354485 6.5870981 l -0.70759,-0.7747057 -0.70758,-0.774708 -0.62804,-0.2387785 -0.62804,-0.2387808 -0.40437,0.0073 -0.40438,0.0073 -0.42,0.2446272 z m 113.28001,-0.012048 -0.42,0.2566801 v 0.9009192 0.9009169 l 0.84,2.494313 0.84,2.4943125 v 0.312843 0.312845 h -0.43003 -0.43004 l -0.98714,-1.02 -0.98714,-1.02 -0.75279,-1.2000005 -0.75281,-1.2000001 -0.49341,-1.6200001 -0.4934,-1.6200002 h -1.29662 -1.29662 l -0.007,0.3000001 -0.007,0.3 1.13947,3.7991691 1.13945,3.7991667 -0.56542,0.426492 -0.56542,0.42649 0.21267,0.126328 0.21264,0.126329 1.75567,0.292342 1.75567,0.292339 0.15204,-0.152042 0.15204,-0.15204 -0.28771,-1.075731 -0.28771,-1.07573 V 11.700682 11.16825 l 1.1059,1.264217 1.10592,1.264216 0.92452,0.47166 0.92453,0.471663 h 0.48958 0.48955 l 0.48,-0.48 0.48,-0.48 v -0.724438 -0.724435 l -0.84,-2.5983819 -0.84,-2.5983794 V 6.6371885 6.2400053 h 0.16452 0.16454 l 0.55546,0.5218344 0.55548,0.5218368 V 6.9305477 6.5774213 l -0.91872,-0.8970961 -0.9187,-0.8970961 -0.8213,-0.1163664 -0.82128,-0.1163688 -0.42,0.2566824 z m 57.84,0.012048 -0.42,0.2446273 v 0.7903776 0.7903753 l 0.83558,2.6176994 0.83559,2.6176971 0.004,0.3 0.004,0.3 h -0.39716 -0.39717 l -0.90804,-0.954559 -0.90807,-0.954562 -0.83006,-1.5054385 -0.83009,-1.505441 -0.39141,-1.3800001 -0.39142,-1.3800001 h -1.31328 -1.3133 V 4.9859164 5.17183 l 1.8,6.108171 1.8,6.108171 v 0.292305 0.292306 l -0.52011,0.364301 -0.52013,0.364298 0.67503,0.256637 0.675,0.256637 1.4051,0.146863 1.40511,0.146861 v -0.334188 -0.334191 l -1.07914,-3.699962 -1.07914,-3.699961 0.10664,-0.106632 0.10663,-0.106632 1.51339,1.570237 1.51342,1.570236 0.9096,0.164868 0.9096,0.164868 0.4704,-0.425708 0.4704,-0.425709 v -0.875645 -0.875647 l -0.84,-2.4943133 -0.84,-2.494313 V 6.6728453 6.2400005 h 0.16452 0.16454 l 0.55546,0.5218344 0.55548,0.5218368 V 6.9353237 6.5869733 l -0.7076,-0.7747057 -0.70756,-0.774708 -0.62806,-0.2387785 -0.62803,-0.2387808 -0.40438,0.0073 -0.40437,0.0073 -0.42,0.2446272 z m 57.42,0.2207761 -0.48,0.48 V 5.742766 5.9655316 l 0.94267,3.0681843 0.94267,3.0681841 -0.11683,0.18905 -0.11683,0.189051 h -0.31793 -0.3179 l -0.85937,-0.951233 -0.85939,-0.951233 -0.65871,-1.0287671 -0.6587,-1.0287673 -0.60984,-1.8000001 -0.60984,-1.8000001 -1.26,-0.072542 -1.26,-0.072542 v 0.3317257 0.3317256 l 1.82371,6.2113993 1.82374,6.2114 -0.53772,0.43542 -0.53772,0.435418 0.14052,0.140537 0.14054,0.140536 1.80665,0.260276 1.80665,0.260272 0.15021,-0.150208 0.15022,-0.150212 -1.13822,-3.861775 -1.13823,-3.861776 0.14496,-0.144962 0.14496,-0.14496 1.24486,1.36206 1.24483,1.362063 0.6731,0.348074 0.67311,0.348072 h 0.4919 0.49193 l 0.48,-0.48 0.48,-0.48 -0.002,-0.66 -0.002,-0.66 -0.94375,-2.8800004 -0.94373,-2.8800002 0.23906,-0.24 0.23907,-0.2400001 0.45062,0.5964145 0.45063,0.5964144 0.18033,-0.1803432 0.18036,-0.1803408 -0.486,-0.6560736 -0.486,-0.6560713 -0.79341,-0.54 -0.79344,-0.5400001 h -0.56451 -0.5645 l -0.48,0.4800001 z M 65.040002,4.9994452 V 5.19889 l 0.570969,0.3055728 0.570967,0.3055728 5.712732,6.8149834 5.712733,6.814982 h 0.182136 0.182136 l 0.118509,-0.191755 0.118512,-0.191755 -0.259591,-6.535263 -0.259589,-6.5352628 0.557079,-0.5929824 0.557078,-0.5929825 -2.981837,0.0096 -2.981834,0.0096 0.651295,0.3534937 0.651298,0.353496 0.2677,0.8968969 0.267704,0.8968944 -0.079,0.9600001 -0.079,0.9600001 -2.073552,0.068959 -2.073552,0.068957 L 69.258549,8.1089406 68.1442,6.8399813 68.003656,6.2903117 67.863112,5.7406396 68.288754,5.2703116 68.714397,4.7999811 H 66.877199 65.040002 V 4.999426 Z m 9.69,6.0705558 0.15,0.75 v 1.301926 1.301925 l -0.327161,-0.191925 -0.327163,-0.191926 -1.352837,-1.602283 -1.352839,-1.602286 v -0.257714 -0.257717 h 1.53 1.53 z M 275.52001,4.93159 v 0.1315896 l 1.08,3.762437 1.08,3.7624344 v 0.176626 0.176626 l -0.51778,0.482383 -0.51778,0.482385 0.33778,0.112793 0.33778,0.112791 1.40565,0.276516 1.40566,0.276513 0.24024,-0.240245 0.24026,-0.240247 -0.28521,-0.864187 -0.28522,-0.864187 0.0887,-0.266156 0.0887,-0.266152 0.65011,0.982416 0.65013,0.982416 0.58872,0.385733 0.5887,0.385732 0.49118,-0.155899 0.49121,-0.155899 0.14657,-0.584004 0.14657,-0.584004 -0.16531,-0.658658 -0.16532,-0.658657 -0.25008,-0.301344 -0.2501,-0.301341 h -0.37171 -0.37171 l -0.4344,0.393122 -0.4344,0.393123 L 281.1442,11.746938 280.75952,11.42763 279.96176,9.8434783 279.164,8.259327 278.63861,6.5296637 278.11325,4.8000003 h -1.29662 -1.29662 z m 112.08,0 v 0.1315896 l 1.08,3.762437 1.08,3.7624344 v 0.176626 0.176626 l -0.51778,0.482383 -0.51777,0.482385 0.33777,0.112793 0.33778,0.112791 1.40566,0.276516 1.40565,0.276513 0.24024,-0.240245 0.24027,-0.240247 -0.28522,-0.864187 -0.28522,-0.864187 0.0887,-0.266156 0.0887,-0.266152 0.65011,0.982416 0.65014,0.982416 0.58872,0.385733 0.58869,0.385732 0.49119,-0.155899 0.49121,-0.155899 0.14656,-0.584004 0.14657,-0.584004 -0.16531,-0.658658 -0.16531,-0.658657 -0.25008,-0.301344 -0.25011,-0.301341 h -0.37171 -0.37171 l -0.4344,0.393122 -0.4344,0.393123 -0.38474,-0.319308 L 392.83952,11.42763 392.04176,9.8434783 391.244,8.259327 390.71862,6.5296637 390.19326,4.8000003 h -1.29663 -1.29662 z M 203.81341,16.693609 203.28,17.06722 v 0.789194 0.789192 l 0.4389,0.397198 0.4389,0.397197 h 0.6411 0.6411 l 0.48,-0.48 0.48,-0.48 v -0.490908 -0.49091 l -0.58909,-0.58909 -0.58909,-0.589092 h -0.4375 -0.43751 z m 87.39271,0.238469 -0.6121,0.612079 0.15615,0.647921 0.15612,0.647923 0.39273,0.3 0.39274,0.3 h 0.63691 0.63694 l 0.3972,-0.438897 0.3972,-0.438898 V 17.814712 17.06722 l -0.5334,-0.373611 -0.5334,-0.373608 h -0.43752 -0.4375 z m -225.286118,20.667926 -0.16,0.159998 v 10.407533 10.407534 l 0.357384,0.137141 0.357384,0.137141 1.742616,-0.388676 1.742616,-0.388672 1.2,-0.687658 1.2,-0.687658 1.235606,-1.308182 1.235609,-1.308185 0.59153,-1.180157 0.591531,-1.180159 0.304855,-1.293579 0.304855,-1.293576 -0.129965,-1.896146 -0.129964,-1.896147 -0.828752,-1.730278 -0.828751,-1.730275 -0.966377,-1.08 -0.966377,-1.08 -1.286899,-0.769839 -1.286901,-0.769836 -1.430424,-0.370164 -1.430424,-0.370161 h -0.629576 -0.629577 z m 5.296781,4.532189 1.233339,1.078893 0.67494,1.374459 0.67494,1.374458 v 2.16 2.160001 l -0.541145,1.098137 -0.541143,1.098136 -0.859005,1.003556 -0.859006,1.003553 -1.052673,0.61691 -1.052674,0.616908 -0.247178,-0.152765 -0.247176,-0.152762 v -7.265838 -7.265837 l 0.140402,-0.140402 0.140402,-0.140403 0.65132,0.227052 0.651319,0.22705 z m 343.183237,-4.532189 -0.16001,0.159998 v 10.407533 10.407534 l 0.35738,0.137141 0.35739,0.137141 1.74261,-0.388676 1.74262,-0.388672 1.2,-0.687658 1.2,-0.687658 1.2335,-1.30595 1.23348,-1.305953 0.48447,-0.949613 0.48446,-0.949613 0.4129,-1.420356 0.41292,-1.420356 -0.12432,-1.992631 -0.12432,-1.992634 -0.83326,-1.739789 -0.83328,-1.739789 -0.96638,-1.08 -0.96636,-1.08 -1.28691,-0.769839 -1.2869,-0.769836 -1.43042,-0.370164 -1.43043,-0.370161 H 415.18959 414.56 Z m 4.73141,4.087725 1.0878,0.767727 0.73668,1.016962 0.73668,1.016961 0.38294,1.317322 0.38297,1.317322 -0.11537,1.612209 -0.11534,1.612212 -0.56362,1.165779 -0.56364,1.165781 -1.11382,1.114997 -1.11384,1.114999 -0.76348,0.39481 -0.76347,0.394809 -0.23297,-0.143971 -0.23294,-0.143971 v -7.265838 -7.265837 l 0.14354,-0.143553 0.14357,-0.143552 0.43827,0.163553 0.43826,0.163553 z m -282.05915,-3.686618 -0.27766,0.334553 0.0627,9.93217 0.0627,9.93217 h 3.36 3.36 v -1.08 -1.08 l -1.78927,-0.07151 -1.78928,-0.07151 -0.31072,-0.257878 L 139.44,55.38123 v -1.861226 -1.861227 l 0.3061,-0.254035 0.30609,-0.254035 1.19391,-0.07535 1.1939,-0.07535 0.0728,-1.132208 0.0728,-1.132207 -0.55283,-0.123823 -0.55284,-0.123821 -0.96,-0.06397 -0.96,-0.06397 v -3.960001 -3.96 l 2.04,-0.12 2.04,-0.12 v -1.2 -1.2 l -3.14503,-0.06672 -3.14504,-0.06672 z m 67.51748,-0.02095 -0.11518,0.300153 0.0627,9.959848 0.0627,9.959844 h 1.2 1.2 l 0.12,-8.88 0.12,-8.880001 2.04,-0.12 2.04,-0.12 0.0755,-0.91675 0.0755,-0.916749 -0.28488,-0.343251 -0.28487,-0.34325 h -3.09814 -3.09815 l -0.11518,0.300151 z m 65.77051,-0.01339 -0.11484,0.31325 3.29729,9.960001 3.29729,9.960001 0.24,-0.03103 0.24,-0.03103 3.28634,-9.688974 3.28634,-9.688971 -0.0463,-0.48 -0.0463,-0.48 -0.96,-0.06262 -0.96,-0.06262 -0.31229,0.20438 -0.31229,0.204379 -1.00771,3.098239 -1.00771,3.098225 h -2.16 -2.16 l -1.08,-3.24 -1.08,-3.24 -1.14245,-0.07325 -1.14245,-0.07325 -0.11484,0.31325 z m 7.79621,9.493251 -0.004,0.42 -0.44631,1.429946 -0.4463,1.429947 -0.2305,0.07684 -0.23052,0.07684 -0.50544,-1.732685 -0.50544,-1.732685 0.11996,-0.194097 0.11995,-0.1941 h 1.06584 1.06584 l -0.004,0.42 z m 65.66066,-9.402858 -0.37713,0.377144 0.004,9.642857 0.004,9.642858 0.21168,0.334279 0.21168,0.334279 0.58243,-0.934279 0.58241,-0.934279 2.35121,-4.140001 2.35118,-4.14 h 0.21103 0.21103 v 4.872 4.872001 l 0.288,0.288 0.288,0.288 h 0.65237 0.65237 l 0.37963,-0.145678 0.37963,-0.145678 V 48.098912 37.929161 l -0.63369,-0.159048 -0.63372,-0.15905 -0.62628,0.219254 -0.62631,0.219255 -0.12,2.155224 -0.12,2.155221 -1.6361,2.935791 -1.6361,2.935791 -0.2239,0.138372 -0.2239,0.138374 v -5.037019 -5.037022 l -0.37713,-0.377144 -0.37716,-0.377143 h -0.68571 -0.6857 L 343.817,38.05716 Z m -279.689139,35.430845 -0.288,0.288 v 0.744 0.744 l 0.288,0.288 0.288,0.288001 h 163.104009 163.104 l 0.288,-0.288001 0.288,-0.288 v -0.744 -0.744 l -0.288,-0.288 -0.288,-0.288 H 227.52001 64.416001 Z m 348.050119,0.04248 -0.1301,0.339044 0.076,0.925238 0.076,0.925238 h 5.88 5.88 v -1.2 -1.2 l -5.82588,-0.06428 -5.8259,-0.06428 z m -15.58817,0.600699 -0.97005,0.440635 -0.43819,0.668772 -0.43822,0.668775 -0.0173,1.138118 -0.0173,1.138121 0.38743,0.591326 0.38746,0.591324 0.83424,0.395876 0.83426,0.395875 h 0.83935 0.83936 l 1.35295,-0.711694 1.35295,-0.711693 0.45494,0.748118 0.45497,0.748116 0.51711,1.916393 0.5171,1.916395 -3.04817,12.867184 -3.04814,12.867181 -0.34421,0.84 -0.34421,0.84 -0.84206,0.86423 -0.84207,0.86424 0.0738,1.29576 0.074,1.29577 4.76918,0.0652 4.76919,0.0652 0.33081,-0.27456 0.33082,-0.27455 v -0.92134 -0.92134 l -0.96,-0.95046 -0.96,-0.95045 v -0.53779 -0.53779 l 1.45102,-6.14103 1.45099,-6.141029 0.13437,-0.36 0.13438,-0.36 0.21024,0.48 0.21022,0.48 1.32439,5.331979 1.32439,5.33198 v 0.9783 0.9783 l -1.08,1.15461 -1.08,1.15461 v 0.85548 0.85548 l 0.14568,0.37963 0.14568,0.37963 h 3.88632 3.88632 l 0.288,-0.288 0.288,-0.288 v -0.98329 -0.9833 l -0.97978,-0.9487 -0.97977,-0.94871 -0.35832,-0.68308 -0.35832,-0.68309 -3.31973,-13.71691 -3.3197,-13.71692 -0.72953,-2.259533 -0.72953,-2.259531 -0.86556,-1.256772 -0.86558,-1.256772 -0.93461,-0.647685 -0.93461,-0.647688 -0.91248,-0.325474 -0.91248,-0.325476 -1.2,-0.0053 -1.2,-0.0053 -0.97006,0.440638 z M 150.84,83.305405 l -0.96,0.217181 -1.40576,0.517608 -1.40576,0.517606 -0.77128,-0.278897 -0.77128,-0.278897 h -1.07496 -1.07496 l -0.288,0.288 -0.288,0.288 v 6.894857 6.894858 l 0.37715,0.377143 0.37714,0.377143 h 0.89699 0.89698 l 0.40465,-0.3 0.40465,-0.3 0.47611,-2.655343 0.47611,-2.655344 0.34153,-0.967994 0.34153,-0.967997 0.4862,-0.953033 0.4862,-0.953033 0.96378,-0.870715 0.96378,-0.870715 1.00063,-0.269443 1.00063,-0.269441 0.92399,0.156105 0.92399,0.156108 0.94676,0.685829 0.94676,0.685829 0.80222,1.630378 0.80222,1.630377 -0.0127,2.764215 -0.0127,2.764217 -0.53515,1.354997 -0.53515,1.354996 -0.91892,1.42175 -0.91892,1.42174 -2.19255,2.50326 -2.19254,2.50326 -2.19193,2.4 -2.19193,2.4 -1.13079,1.71269 -1.13079,1.71269 -0.63204,1.70516 -0.63204,1.70516 -0.27728,2.16215 -0.27729,2.16215 0.27792,2.16702 0.2779,2.16702 0.55468,1.5281 0.55467,1.52811 1.11491,1.56241 1.11491,1.56241 1.44662,0.96601 1.44662,0.96601 1.36763,0.28392 1.36764,0.28392 1.13658,-0.13461 1.13659,-0.13461 1.60723,-0.64299 1.60722,-0.64299 1.26076,0.30245 1.26075,0.30245 0.68268,-0.17134 0.68269,-0.17135 0.17872,-0.28097 0.17873,-0.28097 0.004,-5.892 0.004,-5.892 -0.288,-0.288 -0.288,-0.288 h -1.12262 -1.12261 l -0.28345,0.34153 -0.28345,0.34154 -0.69274,2.64039 -0.69273,2.64039 -0.59779,1.17968 -0.59779,1.17968 -0.85981,0.75493 -0.85982,0.75492 -0.59717,0.14989 -0.59718,0.14988 -0.83136,-0.15597 -0.83135,-0.15596 -0.73759,-0.62064 -0.73759,-0.62064 -0.46529,-0.91205 -0.46529,-0.91204 -0.1512,-1.28648 -0.1512,-1.28648 0.38196,-1.49094 0.38196,-1.49094 0.51189,-1.02034 0.51189,-1.02035 1.26113,-1.68 1.26113,-1.68 2.80588,-2.97978 2.80587,-2.97979 1.55949,-2.06021 1.5595,-2.06022 1.05174,-2.16 1.05175,-2.16 0.38457,-1.44 0.38457,-1.44 0.14,-2.760003 0.13999,-2.76 -0.38431,-2.04 -0.3843,-2.04 -0.98276,-1.991681 -0.98275,-1.991681 -1.36259,-1.386802 L 159,85.043041 l -1.08,-0.629037 -1.08,-0.629038 -1.43043,-0.37248 -1.43042,-0.37248 -1.08958,0.02411 -1.08957,0.02411 -0.96,0.217183 z m 101.09902,0.235162 -0.90098,0.212345 -1.13902,0.582811 -1.13901,0.582811 -0.88829,0.920736 -0.88827,0.920736 -0.37173,0.892292 -0.37171,0.892291 v 1.246622 1.246623 l 0.59805,1.020492 0.59803,1.02049 1.0784,0.41184 1.07839,0.41184 0.98045,-0.156783 0.98047,-0.156782 0.55884,-0.366161 0.55881,-0.366163 0.29494,-0.712035 0.29494,-0.712037 -0.16445,-1.885327 -0.16447,-1.885325 0.38152,-0.381511 0.38151,-0.381511 0.79406,-0.148968 0.79407,-0.148968 0.99993,0.269251 0.99994,0.269254 0.82675,0.826749 0.82673,0.82675 0.15797,0.841961 0.15794,0.841961 -0.16284,0.661579 -0.16282,0.661577 -0.59092,1.01526 -0.59093,1.015262 -3.84089,3.142224 -3.84091,3.142227 -0.969,1.22589 -0.96903,1.22589 -0.43495,0.85662 -0.43497,0.85663 -0.29201,1.41477 -0.29203,1.41478 0.15916,1.48624 0.15917,1.48623 0.56175,1.21248 0.56176,1.21249 0.87598,0.96961 0.876,0.96962 1.12733,0.71737 1.12733,0.71738 1.41806,0.40761 1.41809,0.40761 1.94191,-0.10242 1.94194,-0.10243 1.32146,-0.60559 1.32146,-0.6056 0.81281,-0.81282 0.81283,-0.81283 0.3542,-0.84725 0.35419,-0.84725 0.013,-1.08 0.013,-1.08 -0.3979,-0.76108 -0.39789,-0.76108 -0.7478,-0.53246 -0.74776,-0.53247 -1.23584,-0.0168 -1.23585,-0.0168 -0.77611,0.45984 -0.77614,0.45984 -0.39312,0.82844 -0.39312,0.82844 0.30557,1.27374 0.30557,1.27375 -0.30572,0.36836 -0.30571,0.36836 -0.9906,-9.6e-4 -0.99062,-9.6e-4 -0.79445,-0.48436 -0.79445,-0.48435 -0.34555,-0.82704 -0.34555,-0.82704 v -0.61541 -0.61542 l 0.37171,-0.89229 0.37174,-0.89229 0.88826,-0.92649 0.88829,-0.92648 2.76,-2.10684 2.76,-2.10683 1.04683,-1.04668 1.04683,-1.046685 0.70289,-1.017365 0.70289,-1.017362 0.34521,-0.978463 0.34522,-0.978461 0.15288,-1.49216 0.15288,-1.492159 -0.29587,-1.432015 -0.29587,-1.432016 -0.58887,-1.165384 -0.58884,-1.165383 -1.02672,-0.997867 -1.02674,-0.997867 -1.32387,-0.648243 -1.32388,-0.648242 -1.0525,-0.24264 -1.05247,-0.24264 -1.8,0.01824 -1.8,0.01824 -0.90099,0.212344 z m 22.8,-0.01466 -0.90098,0.227006 -1.14864,0.58207 -1.14867,0.582067 -0.99213,1.076352 -0.99216,1.07635 -0.25687,0.925128 -0.25688,0.925128 -0.002,0.944227 -0.002,0.944225 0.49443,1.021349 0.49442,1.021347 1.02135,0.494426 1.02134,0.494426 0.58423,-0.0014 0.58423,-0.0014 0.91248,-0.253389 0.91248,-0.25339 0.4849,-0.765273 0.4849,-0.765272 -0.13244,-2.067273 -0.13243,-2.067274 0.50076,-0.452727 0.50074,-0.452726 1.23432,0.01651 1.23429,0.01651 0.76109,0.399859 0.76107,0.399857 0.53709,0.754284 0.5371,0.754284 0.10087,1.109338 0.10085,1.109337 -0.57756,1.078445 -0.57756,1.078443 -1.68519,1.441557 -1.68516,1.441556 -2.40736,1.968574 -2.40737,1.968572 -1.08852,1.44806 -1.08855,1.44806 -0.43135,1.26337 -0.43137,1.26336 0.0173,1.92 0.0173,1.92 0.52651,1.3684 0.52651,1.36839 1.0859,1.2078 1.08593,1.20779 1.79595,0.88761 1.79596,0.88761 1.98716,0.1043 1.98715,0.1043 1.30279,-0.37873 1.30277,-0.37873 1.14043,-0.75538 1.14041,-0.75538 0.56582,-0.99399 0.5658,-0.99399 0.14957,-0.81249 0.14957,-0.8125 -0.24682,-0.91659 -0.24681,-0.91659 -0.61121,-0.72638 -0.61121,-0.72638 -0.94603,-0.25474 -0.94603,-0.25474 -0.86453,0.16218 -0.86451,0.16218 -0.78403,0.68839 -0.78401,0.68838 -0.12794,0.65964 -0.12797,0.65964 0.2587,1.12885 0.25867,1.12884 -0.30802,0.37116 -0.30804,0.37116 -0.9906,-0.002 -0.99062,-0.002 -0.67322,-0.44389 -0.6732,-0.44388 -0.31613,-0.45454 -0.31613,-0.45453 -0.16531,-0.75992 -0.16534,-0.75992 0.26979,-1.00183 0.26976,-1.00184 0.9874,-1.0712 0.98739,-1.0712 2.71008,-2.04572 2.71008,-2.04572 1.33992,-1.3399 1.33989,-1.33991 0.57502,-0.98142 0.57504,-0.981423 0.37248,-1.430424 0.37248,-1.430424 v -1.219152 -1.219152 l -0.37195,-1.428051 -0.37198,-1.42805 -0.74688,-1.163933 -0.7469,-1.163936 -1.26574,-0.955644 -1.26573,-0.955644 -1.27541,-0.495403 -1.27541,-0.495401 -2.4,-0.07795 -2.4,-0.07794 -0.90098,0.227004 z m 26.07283,-0.01814 -0.74815,0.178608 -1.13119,0.547598 -1.13119,0.547601 -1.1221,1.122096 -1.12209,1.122096 -0.75512,1.427129 -0.75511,1.427129 -0.47954,1.567851 -0.47952,1.567853 -0.29789,2.366546 -0.29786,2.366544 0.13296,3.385602 0.13298,3.38561 0.40118,1.92 0.40116,1.92 0.72608,1.74925 0.72604,1.74926 1.01792,1.38272 1.01791,1.38272 1.17583,0.75164 1.17586,0.75165 1.15315,0.28818 1.15315,0.28818 1.50154,-0.12053 1.50153,-0.12052 1.11245,-0.49209 1.11243,-0.49208 1.10968,-1.10969 1.10969,-1.10969 0.82462,-1.73639 0.82459,-1.73638 0.35443,-1.67312 0.35441,-1.67311 0.004,-3.06 0.004,-3.06 -0.06,-0.0486 -0.06,-0.0486 -5.52,-0.13137 -5.52,-0.131385 -0.069,-2.64 -0.069,-2.640001 0.25971,-1.68 0.2597,-1.68 0.5563,-1.217016 0.55629,-1.217014 0.84922,-0.402986 0.84924,-0.402984 h 0.65196 0.65196 l 0.8952,0.9 0.89523,0.9 0.42604,1.32 0.42605,1.32 0.18319,0.200684 0.1832,0.200683 1.33759,-0.167124 1.33761,-0.167122 0.41734,-0.305177 0.41736,-0.305174 -0.27228,-1.464173 -0.2723,-1.464173 -0.65357,-1.456327 -0.65355,-1.456328 -1.18512,-1.065511 -1.18509,-1.065511 -1.22026,-0.362374 -1.22023,-0.362373 -1.57644,0.02457 -1.57644,0.02457 -0.74815,0.178611 z m 3.86816,24.132253 v 3.6 l -0.36,0.71128 -0.36,0.71128 -0.61663,0.34562 -0.61664,0.34562 -0.66081,-0.16585 -0.66084,-0.16586 -0.50861,-1.13105 -0.50863,-1.13104 -0.1021,-3.05349 -0.1021,-3.05349 0.14424,-0.37591 0.14427,-0.37591 2.10391,0.0694 2.10394,0.0694 z m 59.27719,-23.896525 -1.20281,0.428407 -1.00764,0.514056 -1.00761,0.514056 h -0.69507 -0.69504 l -1.10011,-0.84 -1.10011,-0.84 h -0.4944 -0.4944 l -0.002,23.820006 -0.002,23.82 -0.24787,0.89255 -0.2479,0.89254 -0.59076,0.7021 -0.59078,0.7021 v 0.83597 0.83597 l 0.33211,0.27562 0.33209,0.27562 3.80791,-0.0662 3.81,-0.0662 0.12,-10.8 0.12,-10.8 0.24,0.10069 0.24,0.10068 1.50696,0.7052 1.50696,0.70519 1.75641,-0.0887 1.75642,-0.0887 1.17662,-0.72418 1.17663,-0.72418 0.76387,-1.13598 0.76387,-1.13597 0.51727,-1.37703 0.5173,-1.37703 0.37968,-1.8 0.37968,-1.8 0.009,-5.04 0.009,-5.040005 -0.41995,-2.16 -0.41993,-2.16 -0.37942,-1.2 -0.37944,-1.200001 -0.84463,-1.628505 -0.84465,-1.628508 -1.1672,-1.049408 -1.16719,-1.049407 -1.12135,-0.382085 -1.12138,-0.382087 -1.33723,0.01754 -1.33725,0.01754 -1.20281,0.42841 z m 2.37523,4.117711 0.63718,0.50119 0.33741,0.652505 0.33742,0.652502 0.2899,2.026306 0.28987,2.026306 0.024,6.600005 0.024,6.6 -0.32045,1.44 -0.32042,1.44 -0.4578,0.75176 -0.4578,0.75176 -0.72185,0.299 -0.72182,0.29899 -0.85745,-0.13914 -0.85747,-0.13914 -0.33857,-0.281 -0.33859,-0.28101 V 99.442886 87.824538 l 0.54,-0.217053 0.54,-0.217054 0.86762,-0.01522 0.86765,-0.01522 0.63715,0.501192 z m -301.004428,-3.573192 -0.288,0.288 v 1.159999 1.160002 l 0.854491,0.854491 0.854491,0.854492 0.225509,0.593131 0.225509,0.593134 v 20.488757 20.48875 l -0.251441,0.67563 -0.251441,0.67562 -0.851815,0.72478 -0.851818,0.72478 -0.115579,1.07522 -0.115579,1.07522 0.318835,0.39987 0.318838,0.39987 11.04,0.0801 11.04,0.0801 0.3,-0.19416 0.3,-0.19417 v -5.47645 -5.47645 l -0.338585,-0.281 -0.338585,-0.281 -0.801415,-0.11669 -0.801415,-0.11668 -0.582158,0.3083 -0.582159,0.3083 -0.428601,1.99585 -0.428602,1.99584 -0.54924,1.00416 -0.54924,1.00415 -1.070854,0.54 -1.070853,0.54 h -2.589147 -2.589146 v -9.72 -9.72 h 1.533413 1.53341 l 0.513317,0.42 0.513317,0.42 0.660667,1.8 0.660667,1.8 1.053353,0.0758 1.053353,0.0758 0.5631,-0.14133 0.563097,-0.14133 -0.06385,-6.53446 -0.06385,-6.53446 H 82.32751 80.775022 l -0.426662,1.2 -0.426663,1.2 -0.38344,0.75177 -0.383441,0.75177 -0.588703,0.26823 -0.588704,0.26823 H 76.66871 75.360002 v -9.725366 -9.725365 l 0.981521,-1.064825 0.981523,-1.064825 0.125438,-0.935215 0.125439,-0.935215 -0.275405,-0.514596 -0.275405,-0.514599 h -5.703555 -5.703556 z m 27.293484,0.226599 -0.275405,0.514596 0.128016,0.954432 0.128016,0.954432 0.710146,0.750969 0.710146,0.750972 0.2688,0.524223 0.268797,0.524222 v 21.021141 21.02114 l -0.981521,1.06483 -0.981523,1.06482 -0.125438,0.93522 -0.125439,0.93521 0.275405,0.5146 0.275405,0.5146 h 5.845877 5.845882 l 0.14567,-0.37963 0.14568,-0.37963 v -0.93968 -0.93968 l -0.80536,-0.90069 -0.80537,-0.90069 -0.27463,-0.52422 -0.27464,-0.52422 V 110.43141 89.791255 l 0.22551,-0.593134 0.22551,-0.593131 0.85449,-0.854492 0.85449,-0.854491 v -1.160002 -1.159999 l -0.288,-0.288 -0.288,-0.288 H 98.600445 92.896891 Z M 109.84,84.160007 l -0.16,0.159998 v 1.313163 1.31316 l 0.96,1.041478 0.96,1.041475 v 21.250729 21.25072 l -0.97256,1.05511 -0.97256,1.0551 0.0726,1.39954 0.0726,1.39953 7.2,-0.0126 7.2,-0.0126 1.93882,-0.64488 1.93882,-0.64488 1.42118,-0.92187 1.42118,-0.92187 0.89159,-0.99208 0.89159,-0.99209 0.58725,-1.15886 0.58724,-1.15887 0.42652,-1.42975 0.42652,-1.42975 -0.003,-2.64 -0.003,-2.64 -0.40888,-1.56 -0.40888,-1.56 -0.63733,-1.32 -0.63733,-1.32 -1.45652,-1.45915 -1.45653,-1.45915 -1.88553,-0.92997 -1.88553,-0.92996 0.47076,-0.37089 0.47076,-0.37088 1.10437,-0.76773 1.10438,-0.76772 0.7226,-0.99752 0.7226,-0.99752 0.50778,-1.35476 0.50779,-1.35475 1.53838,-6.600003 1.53838,-6.6 0.25665,-0.625954 0.25664,-0.625954 0.94499,-0.922754 0.94498,-0.922755 v -1.223292 -1.223292 l -0.288,-0.288 -0.288,-0.288 h -3.77485 -3.77486 l -0.34292,0.342922 -0.34292,0.342921 -2.5671,10.27708 -2.5671,10.277081 -0.56603,1.24293 -0.56603,1.24293 -0.76276,0.39443 -0.76275,0.39444 -0.34869,-0.13381 -0.34869,-0.1338 0.0703,-9.57191 0.0704,-9.571909 1.02,-1.106289 1.02,-1.10629 v -1.157364 -1.157362 l -0.288,-0.288 -0.288,-0.288 h -5.672 -5.672 l -0.16,0.160001 z m 12.27596,29.009153 1.24308,0.36916 0.9263,0.89084 0.9263,0.89085 0.56541,1.44 0.56541,1.44 0.009,4.56 0.009,4.56 -0.29949,0.98375 -0.29949,0.98375 -0.5498,0.81625 -0.54979,0.81625 -1.03989,0.57408 -1.03989,0.57407 -1.35082,0.0259 -1.35083,0.0259 -0.0629,-9.35943 -0.0629,-9.35942 0.11535,-0.30058 0.11534,-0.30057 h 0.44397 0.44397 z m 53.13204,-28.881154 -0.288,0.288 v 1.151727 1.151724 l 0.95325,0.982257 0.95325,0.982258 0.13502,0.758019 0.13502,0.758016 -0.0683,21.000003 -0.0683,21 -1.10753,0.0718 -1.10753,0.0718 -0.74834,-0.62969 -0.74834,-0.62969 -0.45266,-1.48213 -0.45267,-1.48214 -0.17392,-1.2 -0.17393,-1.2 -0.24692,-0.3 -0.24693,-0.3 h -1.12261 -1.12262 l -0.288,0.288 -0.288,0.288 v 5.424 5.424 l 0.288,0.288 0.288,0.288 0.852,-0.002 0.852,-0.002 2.64,-0.35332 2.64,-0.35332 5.63624,-0.005 5.63624,-0.005 2.68867,0.40191 2.68867,0.40191 0.37509,-0.31129 0.37509,-0.3113 v -5.44262 -5.44261 l -0.288,-0.288 -0.288,-0.288 h -1.12261 -1.12261 l -0.26092,0.31439 -0.26092,0.31438 -0.49267,2.14562 -0.49267,2.14561 -0.26828,0.66813 -0.26829,0.66814 -0.59988,0.47186 -0.59988,0.47187 h -1.17136 -1.17136 l 0.0637,-21.80813 0.0637,-21.80813 1.02,-1.106508 1.02,-1.10651 V 85.78959 84.928451 l -0.24844,-0.464222 -0.24844,-0.464223 h -5.70356 -5.70356 z m 37.52915,0.08914 L 212.4,84.75429 v 1.060315 1.060318 l 1.16489,1.286308 1.16489,1.286312 0.17654,0.69623 0.17654,0.696231 3.91017,19.560006 3.91016,19.56 -0.23784,1.6185 -0.23785,1.6185 0.14441,0.37632 0.1444,0.37632 3.01537,1.42518 3.01537,1.42518 h 0.33231 0.33232 l 0.17834,-0.28856 0.17834,-0.28856 4.7316,-23.6365 4.73159,-23.636504 1.22424,-1.131475 1.22422,-1.131476 V 85.63147 84.576003 l -0.288,-0.288 -0.288,-0.288 -5.892,0.0037 -5.892,0.0037 -0.26766,0.176323 -0.26765,0.176326 -0.17514,0.560866 -0.17515,0.560865 0.15449,0.823464 0.15448,0.823464 0.93225,0.61693 0.93224,0.616932 0.23022,0.660418 0.23023,0.660417 -0.71839,3.578324 -0.71838,3.578321 -0.24516,0.3 -0.24516,0.3 -3.87061,-0.0037 -3.87061,-0.0037 -0.27419,-0.176323 -0.27419,-0.176326 -0.65927,-3.24 -0.65926,-3.24 -0.007,-0.671146 -0.007,-0.671146 1.1384,-1.15578 1.1384,-1.15578 0.12856,-0.958478 0.12856,-0.958476 -0.2754,-0.514596 -0.27541,-0.514599 h -4.17441 -4.17441 l -0.37715,0.377143 z m 15.70286,17.934194 v 0.31133 l -1.43994,7.18867 -1.43993,7.18867 -0.12571,0.33435 -0.12572,0.33435 -0.11856,-0.11856 -0.11857,-0.11856 -1.55579,-7.60628 -1.55578,-7.60628 v -0.10951 -0.10951 h 3.24 3.24 z m 88.72001,-18.151336 -0.16001,0.159998 v 1.176015 1.176012 l 0.6,0.786641 0.6,0.786641 v 11.497347 11.497352 l -0.53909,0.82069 -0.53911,0.8207 -0.29647,0.49931 -0.29645,0.4993 -0.004,0.61413 -0.004,0.61413 0.3,0.4012 0.3,0.40121 3.96,0.0647 3.96,0.0647 0.0738,-1.02 0.0738,-1.02 h 0.20208 0.20208 l 1.24255,0.83618 1.24255,0.83617 1.22513,0.36383 1.22345,0.36382 0.73644,-0.001 0.73644,-0.001 0.96,-0.26052 0.96,-0.26053 1.20806,-1.28609 1.20807,-1.2861 1.5306,1.06518 1.5306,1.06518 1.29033,0.48278 1.29034,0.48279 h 0.91519 0.91519 l 0.81581,-0.27315 0.81581,-0.27314 0.7835,-0.58174 0.78351,-0.58174 0.59628,-1.17671 0.59628,-1.17672 0.23546,-1.6284 0.23546,-1.6284 0.005,-10.453379 0.005,-10.453373 0.6,-0.813255 0.6,-0.813254 V 85.542767 84.53878 l -0.33141,-0.27504 -0.33139,-0.275043 -4.28861,0.06565 -4.28868,0.06565 -0.0713,1.225935 -0.0714,1.225932 0.61138,1.149813 0.61135,1.149812 -0.004,10.464255 -0.004,10.464256 -0.29993,0.59274 -0.29993,0.59275 -0.62359,0.35001 -0.62359,0.35002 -0.78483,-0.32509 -0.78482,-0.32508 -0.68813,-0.57901 -0.6881,-0.57901 V 99.254789 88.632237 l 0.71563,-1.056115 0.71563,-1.056116 0.004,-0.972 0.004,-0.972 -0.288,-0.288 -0.288,-0.288 h -4.224 -4.224 l -0.288,0.288 -0.288,0.288 0.007,0.972 0.007,0.972 0.59129,0.96 0.59129,0.96 0.002,10.878462 0.002,10.878462 -0.70155,0.70154 -0.70154,0.70154 h -0.38801 -0.38803 l -0.89042,-0.45446 -0.89045,-0.45447 -0.42725,-0.47245 -0.42725,-0.47245 0.0673,-10.673894 0.0673,-10.673896 0.66,-0.952092 0.66,-0.952092 v -0.9591 -0.9591 l -0.288,-0.288 -0.288,-0.288 h -4.35199 -4.35202 l -0.15998,0.160001 z m 63.44844,0.304222 -0.24845,0.464222 v 0.647438 0.647441 l 0.83971,0.791945 0.83971,0.791947 0.24029,0.632016 0.24029,0.632016 v 21.236299 21.2363 l -0.35328,0.68317 -0.35328,0.68316 -0.61224,0.446 -0.61227,0.44599 -0.13159,0.83892 -0.13159,0.83892 0.33751,0.4523 0.33754,0.4523 4.0242,0.12206 4.0242,0.12207 0.21173,-0.33437 0.21173,-0.33436 0.004,-23.83882 0.004,-23.838828 0.96,-0.950453 0.96,-0.950455 V 85.47873 84.576003 l -0.288,-0.288 -0.288,-0.288 h -4.98356 -4.98355 l -0.24845,0.464223 z m -350.786896,9.937279 -0.125143,0.326122 0.07179,1.656187 0.07179,1.65619 h 11.64 11.64 v -1.92 -1.92 l -11.586646,-0.06231 -11.586648,-0.06231 z"
         id="path3876" /></g></g></svg>